PathFileType	4	(X/Y/Z)	/Users/itak/Documents/Research/Walk-IL/dataset/trc/00278_00010.trc
DataRate	CameraRate	NumFrames	NumMarkers	Units	OrigDataRate	OrigDataStartFrame	OrigNumFrames
100.000000	100.000000	4	54	mm	100.000000	0	552
Frame#	Time	RPSI			LPSI			L3			STRN			T10			C7			CLAV			RBAK			LBAK			LSHO			LUPA			LAEL			LAOL			LWTS			LWPS			LFRA			LIFD			LHPS			LHTS			RSHO			RUPA			RAEL			RAOL			RWTS			RWPS			RFRA			RIFD			RHTS			RHPS			RBHD			LFHD			RFHD			LBHD			LHIP			RASI			LASI			LKNE			LTHI			LANK			LTIP			LTOE			LMT1			LMT5			LHEE			RKNE			RTHI			RANK			RTIP			RTOE			RMT1			RMT5			RHEE			RHIP			*53			
		X1	Y1	Z1	X2	Y2	Z2	X3	Y3	Z3	X4	Y4	Z4	X5	Y5	Z5	X6	Y6	Z6	X7	Y7	Z7	X8	Y8	Z8	X9	Y9	Z9	X10	Y10	Z10	X11	Y11	Z11	X12	Y12	Z12	X13	Y13	Z13	X14	Y14	Z14	X15	Y15	Z15	X16	Y16	Z16	X17	Y17	Z17	X18	Y18	Z18	X19	Y19	Z19	X20	Y20	Z20	X21	Y21	Z21	X22	Y22	Z22	X23	Y23	Z23	X24	Y24	Z24	X25	Y25	Z25	X26	Y26	Z26	X27	Y27	Z27	X28	Y28	Z28	X29	Y29	Z29	X30	Y30	Z30	X31	Y31	Z31	X32	Y32	Z32	X33	Y33	Z33	X34	Y34	Z34	X35	Y35	Z35	X36	Y36	Z36	X37	Y37	Z37	X38	Y38	Z38	X39	Y39	Z39	X40	Y40	Z40	X41	Y41	Z41	X42	Y42	Z42	X43	Y43	Z43	X44	Y44	Z44	X45	Y45	Z45	X46	Y46	Z46	X47	Y47	Z47	X48	Y48	Z48	X49	Y49	Z49	X50	Y50	Z50	X51	Y51	Z51	X52	Y52	Z52	X53	Y53	Z53	X54	Y54	Z54	

1	0	383.2223815917969	981.8604125976562	1264.403564453125	391.5193481445312	980.8087158203125	1089.18994140625	407.9644165039062	1057.745361328125	1183.410278320312	656.0103149414062	1226.626708984375	1159.0537109375	392.9026489257812	1168.694458007812	1188.944946289062	433.8905944824219	1409.849243164062	1150.419189453125	593.0020141601562	1327.675659179688	1149.169189453125	392.4857482910156	1283.557006835938	1245.1533203125	406.1165771484375	1362.1220703125	1054.5537109375	489.8801879882812	1362.634887695312	994.1680908203125	441.9778137207031	1246.38232421875	933.3064575195312	420.4718627929688	1045.35693359375	928.3921508789062	376.5716552734375	1038.941650390625	1003.239318847656	492.9801330566406	817.6642456054688	961.9696044921875	442.1471557617188	807.6605224609375	911.7517700195312	423.0099792480469	940.1224975585938	920.30078125	477.5991821289062	631.2972412109375	972.99609375	438.1995544433594	718.8292236328125	918.6817016601562	500.3187255859375	716.4901733398438	942.0335083007812	521.7472534179688	1408.901000976562	1300.384155273438	524.1755981445312	1358.972534179688	1374.096557617188	512.1328125	1097.999145507812	1446.79931640625	472.8099975585938	1082.687866210938	1360.647338867188	594.5856323242188	864.3301391601562	1422.491577148438	545.9901123046875	868.15576171875	1492.3681640625	531.0288696289062	1031.464477539062	1464.121948242188	587.3131713867188	681.5419311523438	1432.714599609375	615.234130859375	749.2194213867188	1449.3984375	561.6825561523438	753.6436767578125	1495.533203125	495.6609497070312	1578.593994140625	1211.9443359375	623.8896484375	1590.242553710938	1043.759643554688	652.4110717773438	1592.466796875	1131.788208007812	450.4999084472656	1564.87841796875	1073.88134765625	466.9379272460938	937.849609375	994.8966674804688	603.8901977539062	932.8890991210938	1305.781860351562	599.1972045898438	940.0280151367188	1053.794921875	625.1915283203125	481.1078186035156	1072.464721679688	587.6376953125	616.9462890625	1029.878662109375	550.51806640625	45.45017623901367	1141.01513671875	593.0060424804688	248.4369812011719	1096.596801757812	763.1926879882812	34.52373123168945	1191.95263671875	692.5521240234375	26.27656173706055	1233.403564453125	674.0780639648438	40.40336608886719	1124.26513671875	509.939453125	34.69583892822266	1202.756469726562	529.8426513671875	460.5510559082031	1376.395874023438	545.09912109375	719.4200439453125	1373.52783203125	151.3302154541016	223.4075469970703	1378.943359375	456.7545776367188	363.4746398925781	1373.570556640625	205.3713226318359	45.74109649658203	1302.4755859375	188.74658203125	106.2844085693359	1272.465942382812	167.9044494628906	117.344482421875	1385.957763671875	130.5375213623047	274.2623901367188	1333.53564453125	479.1878662109375	930.94287109375	1379.34814453125	nan	nan	nan	
2	0.01	388.3680114746094	981.788818359375	1263.911865234375	395.55322265625	980.980224609375	1088.48095703125	412.4265441894531	1057.908081054688	1182.442993164062	660.6650390625	1226.877685546875	1158.04541015625	397.3734436035156	1169.102783203125	1187.846557617188	438.6280822753906	1410.340942382812	1149.303466796875	597.6519165039062	1327.837768554688	1148.2138671875	397.0263366699219	1283.920654296875	1244.050048828125	410.9046936035156	1362.720825195312	1053.329345703125	494.8663940429688	1363.051513671875	993.1565551757812	447.9468383789062	1246.576904296875	931.8201293945312	428.1708374023438	1045.328369140625	926.3242797851562	382.9784240722656	1038.604248046875	1000.232849121094	501.686767578125	818.315185546875	960.4307861328125	451.5693969726562	808.0050048828125	909.5491333007812	431.5281982421875	940.2109985351562	918.1951293945312	488.2816162109375	631.8329467773438	970.474609375	448.4102478027344	719.1664428710938	916.1485595703125	510.3694458007812	717.3806762695312	940.14111328125	526.4931030273438	1409.077270507812	1299.359008789062	528.8038330078125	1359.051635742188	1372.999145507812	516.8812255859375	1098.025146484375	1445.6328125	478.1009826660156	1082.547241210938	1359.30078125	600.0477294921875	864.558837890625	1422.4609375	550.8020629882812	868.5073852539062	1491.868896484375	535.7498168945312	1031.60205078125	1463.105590820312	593.4129028320312	681.7681274414062	1433.889282226562	620.9280395507812	749.71435546875	1450.386840820312	566.9467163085938	754.26171875	1495.953247070312	500.6698608398438	1579.034301757812	1210.549926757812	628.3973388671875	1590.477905273438	1042.02685546875	657.138671875	1592.912719726562	1129.97216796875	455.1282348632812	1565.017578125	1072.696655273438	471.7270812988281	938.0977172851562	993.6682739257812	609.3622436523438	933.2844848632812	1303.872314453125	603.352783203125	940.486572265625	1051.925659179688	626.753173828125	480.6734619140625	1071.685424804688	590.2107543945312	616.758056640625	1028.978515625	550.5209350585938	45.43937683105469	1141.096557617188	593.5730590820312	248.1972351074219	1096.318603515625	763.2550048828125	34.50629043579102	1191.985717773438	692.5885009765625	26.27593040466309	1233.447387695312	674.10498046875	40.39773559570312	1124.295654296875	509.9462585449219	34.7130241394043	1202.821411132812	543.0901489257812	461.9220886230469	1374.743896484375	552.4778442382812	719.9679565429688	1372.683471679688	164.5831909179688	225.1077117919922	1380.46240234375	470.5596923828125	364.7103881835938	1372.446044921875	220.8843536376953	48.49797439575195	1303.4970703125	202.5707092285156	108.5535278320312	1273.60888671875	182.515625	119.346549987793	1387.312622070312	143.1031951904297	276.1289978027344	1335.367797851562	484.9300842285156	930.8983154296875	1378	nan	nan	nan	
3	0.02	394.8879699707031	981.7310791015625	1263.3076171875	400.6380310058594	981.16357421875	1087.630859375	418.083251953125	1058.074462890625	1181.226806640625	666.490478515625	1227.215454101562	1156.6982421875	402.9674682617188	1169.609375	1186.504516601562	444.5514831542969	1410.956665039062	1147.940795898438	603.4624633789062	1328.06298828125	1146.98291015625	402.7846374511719	1284.328979492188	1242.664672851562	416.8514404296875	1363.480346679688	1051.821899414062	501.0259399414062	1363.605102539062	991.8963012695312	455.3753356933594	1246.865966796875	929.9735717773438	437.9270324707031	1045.350830078125	923.6925048828125	391.1052856445312	1038.176635742188	996.380859375	512.6217041015625	819.1527709960938	958.5045776367188	463.4942016601562	808.496826171875	906.7620849609375	442.3372497558594	940.3817138671875	915.5279541015625	501.6570434570312	632.571533203125	967.3414916992188	461.2870788574219	719.6531982421875	912.9500122070312	522.9520874023438	718.5172119140625	937.8056030273438	532.4454345703125	1409.27197265625	1298.087158203125	534.6016845703125	1359.125732421875	1371.638427734375	522.7332763671875	1098.03271484375	1444.176147460938	484.6511840820312	1082.37646484375	1357.605224609375	606.8004150390625	864.85595703125	1422.412963867188	556.6898803710938	868.8883056640625	1491.19140625	541.5480346679688	1031.741821289062	1461.829833984375	601.1403198242188	682.1087646484375	1435.313598632812	628.0604248046875	750.3901977539062	1451.616821289062	573.479248046875	754.9855346679688	1496.399169921875	507.008544921875	1579.612670898438	1208.810546875	634.0767211914062	1590.717041015625	1039.84375	663.1173095703125	1593.409301757812	1127.67626953125	460.9603271484375	1565.221069335938	1071.231567382812	477.4164123535156	938.3489990234375	992.1605224609375	616.2664184570312	933.8258056640625	1301.423095703125	608.5228271484375	941.0389404296875	1049.5400390625	628.6260375976562	480.1136779785156	1070.705444335938	593.3207397460938	616.484375	1027.87255859375	550.52734375	45.41847991943359	1141.21044921875	594.2011108398438	247.9039611816406	1095.98583984375	763.3268432617188	34.48694229125977	1192.020141601562	692.6345825195312	26.28177833557129	1233.498046875	674.1346435546875	40.39184188842773	1124.331298828125	509.9638671875	34.74536895751953	1202.906494140625	559.70703125	463.7438049316406	1372.451538085938	562.0559692382812	720.83056640625	1371.469482421875	181.5294647216797	226.7817840576172	1382.35205078125	487.9700622558594	366.3090515136719	1370.86767578125	240.8438262939453	51.62483978271484	1304.771606445312	220.375244140625	110.9563827514648	1275.010864257812	201.3219909667969	121.4564361572266	1388.978271484375	159.0863800048828	277.885986328125	1337.63525390625	492.1864929199219	930.8807373046875	1376.245971679688	nan	nan	nan	
4	0.03	402.5322570800781	981.7032470703125	1262.624145507812	406.57568359375	981.3386840820312	1086.700805664062	424.7216796875	1058.226928710938	1179.812377929688	673.2379150390625	1227.639770507812	1155.0224609375	409.4585266113281	1170.182861328125	1184.98291015625	451.4044189453125	1411.670776367188	1146.404418945312	610.1785278320312	1328.355346679688	1145.508544921875	409.5365905761719	1284.749389648438	1241.056274414062	423.6795654296875	1364.371948242188	1050.109008789062	508.0537719726562	1364.2880859375	990.4425659179688	463.9147644042969	1247.26318359375	927.8517456054688	449.3625183105469	1045.46142578125	920.592529296875	400.65625	1037.682495117188	991.81982421875	525.3445434570312	820.1590576171875	956.2727661132812	477.47216796875	809.15087890625	903.4989624023438	455.0328369140625	940.66357421875	912.3943481445312	517.1310424804688	633.5076904296875	963.73974609375	476.3280944824219	720.3067626953125	909.2122192382812	537.5457153320312	719.8712768554688	935.1437377929688	539.3561401367188	1409.4677734375	1296.625732421875	541.3314819335938	1359.185791015625	1370.07861328125	529.3982543945312	1098.016357421875	1442.490356445312	492.1547241210938	1082.183959960938	1355.622436523438	614.5172729492188	865.2173461914062	1422.33837890625	563.33935546875	869.2550659179688	1490.3359375	548.1290283203125	1031.867797851562	1460.3486328125	610.1869506835938	682.57421875	1436.890380859375	636.3164672851562	751.2462158203125	1453.0224609375	580.9668579101562	755.7593994140625	1496.800415039062	514.440673828125	1580.315307617188	1206.8125	640.7019653320312	1590.923583984375	1037.297607421875	670.1220092773438	1593.9052734375	1124.987915039062	467.7640686035156	1565.494995117188	1069.560668945312	483.5503234863281	938.5668334960938	990.48291015625	624.33447265625	934.5106811523438	1298.509399414062	614.4640502929688	941.6493530273438	1046.717651367188	630.6995849609375	479.4496459960938	1069.56201171875	596.7879638671875	616.1258544921875	1026.61572265625	550.5375366210938	45.3857307434082	1141.351928710938	594.8379516601562	247.5753784179688	1095.613891601562	763.4019775390625	34.46488189697266	1192.05029296875	692.6884155273438	26.29804801940918	1233.551025390625	674.163818359375	40.38412094116211	1124.367919921875	509.9963073730469	34.80078506469727	1203.008911132812	578.9994506835938	465.9947509765625	1369.5078125	573.5726318359375	722.050537109375	1369.8525390625	201.63623046875	228.1220703125	1384.525756835938	508.2969665527344	368.2122802734375	1368.807373046875	264.6837158203125	54.82936477661133	1306.239379882812	241.6736907958984	113.1771697998047	1276.59326171875	223.7985382080078	123.386962890625	1390.865966796875	177.9403991699219	279.158935546875	1340.236572265625	500.6904296875	930.9061889648438	1374.124633789062	nan	nan	nan	
